<svg xmlns="http://www.w3.org/2000/svg" xmlns:xlink="http://www.w3.org/1999/xlink" version="1.1" id="Layer_1" x="0px" y="0px" width="16px" height="16px" viewBox="0 0 16 16" style="enable-background:new 0 0 16 16;" xml:space="preserve"><path style="fill-rule:evenodd;clip-rule:evenodd;fill:#1F1F1F;" d="M15.504 13.616l-3.79-3.224 c-0.392-0.353-0.811-0.514-1.149-0.499C11.459 8.8 12 7.5 12 6c0-3.313-2.687-6-6-6S0 2.7 0 6s2.687 6 6 6 c1.486 0 2.845-0.541 3.894-1.435c-0.016 0.3 0.1 0.8 0.5 1.149l3.224 3.79c0.552 0.6 1.5 0.7 2 0.1 C16.169 15.1 16.1 14.2 15.5 13.616z M6 10c-2.209 0-4-1.791-4-4s1.791-4 4-4s4 1.8 4 4S8.209 10 6 10z"/></svg>